<svg width="190" height="23" viewBox="0 0 190 23" fill="none" xmlns="http://www.w3.org/2000/svg">
<g id="Logo1" clip-path="url(#clip0_441_49)">
<g id="&#235;&#160;&#136;&#236;&#157;&#180;&#236;&#150;&#180; 1">
<g id="Group">
<path id="Vector" d="M20.7078 3.30838C20.4541 3.30838 20.2038 3.32121 19.9569 3.34046C22.2418 5.38675 23.6676 8.28461 23.6676 11.4984C23.6676 14.7122 22.2418 17.6116 19.9569 19.6563C20.2055 19.6772 20.4558 19.6884 20.7078 19.6884C25.4789 19.6884 29.3468 16.0208 29.3468 11.4968C29.3468 6.9728 25.4789 3.30518 20.7078 3.30518V3.30838Z" fill="url(#paint0_linear_441_49)"/>
<path id="Vector_2" d="M11.2418 11.5C11.2418 7.05781 14.6447 3.37255 19.113 2.6525C17.1054 1.16589 14.5787 0.279053 11.8338 0.279053C5.29873 0.279053 0 5.30339 0 11.5C0 17.6966 5.29873 22.721 11.8338 22.721C14.5787 22.721 17.1054 21.8341 19.113 20.3475C14.6447 19.6275 11.2418 15.9422 11.2418 11.5V11.5Z" fill="#3E3D3F"/>
</g>
<g id="Group_2">
<path id="Vector_3" d="M55.2096 19.2794C54.8375 20.0235 54.3031 20.6426 53.608 21.1397C52.9129 21.6369 52.0774 22.0073 51.0999 22.2559C50.1223 22.5044 49.0399 22.6279 47.8509 22.6279H37.7879V0.930115H47.6091C49.7841 0.930115 51.4922 1.43688 52.7302 2.4488C53.9682 3.46072 54.5889 4.82546 54.5889 6.53979V6.60234C54.5889 7.22296 54.5145 7.76982 54.364 8.24451C54.2135 8.7208 54.0122 9.14898 53.7619 9.53066C53.5116 9.91394 53.2207 10.2491 52.8892 10.5378C52.5577 10.828 52.2026 11.075 51.822 11.2819C53.0465 11.7582 54.0122 12.4029 54.7158 13.2191C55.4193 14.0354 55.7711 15.1676 55.7711 16.6125V16.6751C55.7711 17.6661 55.5851 18.5353 55.2113 19.2794H55.2096ZM49.987 7.34484C49.987 6.62158 49.7249 6.06991 49.2006 5.68663C48.6763 5.30496 47.9186 5.11252 46.9309 5.11252H42.329V9.70065H46.6282C47.6581 9.70065 48.475 9.51943 49.0805 9.15861C49.686 8.79778 49.9887 8.21243 49.9887 7.40738V7.34484H49.987ZM51.1675 16.024C51.1675 15.3007 50.8952 14.7282 50.3506 14.3032C49.806 13.8798 48.9283 13.6682 47.7173 13.6682H42.329V18.4423H47.8695C48.8995 18.4423 49.7063 18.2515 50.2914 17.8682C50.8766 17.4865 51.1692 16.8916 51.1692 16.0865V16.024H51.1675Z" fill="#3E3D3F"/>
<path id="Vector_4" d="M98.9745 22.628V13.3827C98.9745 12.2698 98.7242 11.4294 98.2219 10.8633C97.7196 10.2972 97.0008 10.0134 96.0638 10.0134C95.1268 10.0134 94.3911 10.2972 93.8567 10.8633C93.3223 11.4294 93.055 12.2698 93.055 13.3827V22.628H88.0861V13.3827C88.0861 12.2698 87.8358 11.4294 87.3335 10.8633C86.8312 10.2972 86.1124 10.0134 85.1754 10.0134C84.2385 10.0134 83.5028 10.2972 82.9683 10.8633C82.4339 11.4294 82.1667 12.2698 82.1667 13.3827V22.628H77.1978V6.01381H82.1667V8.38886C82.4491 8.03445 82.7603 7.69607 83.0986 7.37373C83.4368 7.05139 83.8123 6.76594 84.2266 6.51576C84.641 6.26559 85.1044 6.06834 85.6152 5.9224C86.1276 5.77647 86.6993 5.7043 87.3318 5.7043C88.4869 5.7043 89.4831 5.93363 90.3237 6.39068C91.1625 6.84933 91.812 7.50363 92.2686 8.35679C93.0314 7.48278 93.8804 6.82207 94.819 6.37464C95.756 5.92721 96.8232 5.7027 98.0223 5.7027C99.8742 5.7027 101.324 6.21908 102.371 7.25185C103.416 8.28623 103.94 9.80491 103.94 11.8079V22.6263H98.9711L98.9745 22.628Z" fill="#3E3D3F"/>
<path id="Vector_5" d="M119.275 22.628V20.2625C118.664 21.0419 117.928 21.6818 117.068 22.1853C116.207 22.6873 115.123 22.9391 113.815 22.9391C112.79 22.9391 111.799 22.753 110.84 22.381C109.881 22.0089 109.031 21.4557 108.29 20.7228C107.549 19.9899 106.956 19.0902 106.509 18.0254C106.063 16.9621 105.839 15.7369 105.839 14.353V14.2904C105.839 12.9064 106.063 11.6812 106.509 10.618C106.956 9.55313 107.544 8.65507 108.275 7.92058C109.005 7.1877 109.849 6.63443 110.808 6.26238C111.767 5.89032 112.77 5.7043 113.815 5.7043C115.145 5.7043 116.239 5.94966 117.1 6.44199C117.961 6.93432 118.684 7.50844 119.273 8.16434V0H124.242V22.628H119.273H119.275ZM119.341 14.2904C119.341 13.604 119.226 12.9738 118.997 12.4029C118.769 11.8304 118.463 11.3428 118.082 10.9371C117.7 10.5314 117.254 10.2187 116.743 10.0006C116.23 9.78246 115.681 9.67341 115.092 9.67341C114.504 9.67341 113.954 9.78246 113.442 10.0006C112.929 10.2187 112.478 10.5314 112.085 10.9371C111.693 11.3428 111.382 11.8255 111.153 12.3884C110.925 12.9497 110.81 13.5848 110.81 14.292V14.3546C110.81 15.0409 110.925 15.6712 111.153 16.2437C111.382 16.8162 111.693 17.3037 112.085 17.7095C112.478 18.1152 112.929 18.4279 113.442 18.646C113.954 18.8641 114.504 18.9732 115.092 18.9732C115.681 18.9732 116.23 18.8641 116.743 18.646C117.255 18.4279 117.702 18.1152 118.082 17.7095C118.463 17.3037 118.769 16.8146 118.997 16.2437C119.226 15.6712 119.341 15.0425 119.341 14.3546V14.292V14.2904Z" fill="#3E3D3F"/>
<path id="Vector_6" d="M70.0589 22.6279V20.2625C69.4484 21.0419 68.7127 21.6818 67.8518 22.1853C66.991 22.6873 65.9069 22.939 64.5995 22.939C63.5746 22.939 62.5835 22.753 61.6246 22.381C60.6656 22.0089 59.8149 21.4556 59.0742 20.7228C58.3334 19.9899 57.7398 19.0902 57.2933 18.0254C56.8468 16.9621 56.6235 15.7369 56.6235 14.3529V14.2904C56.6235 12.9064 56.8468 11.6812 57.2933 10.618C57.7398 9.55312 58.3283 8.65506 59.0589 7.92057C59.7896 7.18769 60.6335 6.63442 61.5925 6.26237C62.5514 5.89031 63.5543 5.70428 64.5995 5.70428C65.9289 5.70428 67.0231 5.94965 67.884 6.44198C68.7448 6.93431 69.4687 7.50843 70.0572 8.16433V6.0138H75.0262V22.6279H70.0572H70.0589ZM70.1249 14.2904C70.1249 13.604 70.0099 12.9738 69.7816 12.4029C69.5532 11.8303 69.2471 11.3428 68.8666 10.9371C68.4844 10.5314 68.0379 10.2186 67.5271 10.0005C67.0146 9.78245 66.465 9.6734 65.8764 9.6734C65.2879 9.6734 64.7382 9.78245 64.2258 10.0005C63.7133 10.2186 63.2617 10.5314 62.8694 10.9371C62.477 11.3428 62.1658 11.8255 61.9375 12.3884C61.7092 12.9497 61.5941 13.5848 61.5941 14.292V14.3545C61.5941 15.0409 61.7092 15.6712 61.9375 16.2437C62.1658 16.8162 62.477 17.3037 62.8694 17.7094C63.2617 18.1152 63.7133 18.4279 64.2258 18.646C64.7382 18.8641 65.2879 18.9731 65.8764 18.9731C66.465 18.9731 67.0146 18.8641 67.5271 18.646C68.0396 18.4279 68.486 18.1152 68.8666 17.7094C69.2471 17.3037 69.5532 16.8146 69.7816 16.2437C70.0099 15.6712 70.1249 15.0425 70.1249 14.3545V14.292V14.2904Z" fill="#3E3D3F"/>
<path id="Vector_7" d="M143.16 17.7143C142.714 18.7583 142.097 19.6724 141.307 20.4582C140.517 21.244 139.585 21.863 138.511 22.3184C137.437 22.7723 136.262 23 134.987 23C133.711 23 132.566 22.7771 131.492 22.3329C130.418 21.8887 129.492 21.2793 128.712 20.5047C127.932 19.7301 127.318 18.8208 126.874 17.7768C126.427 16.7328 126.206 15.6118 126.206 14.4139V14.3513C126.206 13.1534 126.429 12.0324 126.874 10.9884C127.318 9.94443 127.937 9.03034 128.727 8.24453C129.517 7.45873 130.449 6.83971 131.523 6.38426C132.597 5.93042 133.771 5.7027 135.047 5.7027C136.324 5.7027 137.468 5.92561 138.542 6.36983C139.616 6.81405 140.542 7.42345 141.322 8.19803C142.102 8.9726 142.714 9.88189 143.16 10.9259C143.605 11.9699 143.828 13.0909 143.828 14.2888V14.3513C143.828 15.5509 143.605 16.6719 143.16 17.7143ZM139.271 14.3513C139.271 13.7307 139.169 13.1486 138.966 12.6001C138.763 12.0533 138.469 11.5674 138.085 11.144C137.699 10.7206 137.244 10.3838 136.717 10.1369C136.189 9.88831 135.612 9.76482 134.985 9.76482C134.317 9.76482 133.723 9.88349 133.207 10.1208C132.692 10.3582 132.25 10.6837 131.885 11.0975C131.519 11.5112 131.242 11.9923 131.049 12.5392C130.856 13.0876 130.76 13.6714 130.76 14.2904V14.353C130.76 14.9736 130.862 15.5573 131.065 16.1042C131.267 16.6526 131.56 17.1385 131.946 17.5619C132.33 17.9853 132.781 18.3221 133.297 18.569C133.813 18.8176 134.396 18.9411 135.044 18.9411C135.692 18.9411 136.306 18.8224 136.822 18.5851C137.337 18.3477 137.779 18.0222 138.144 17.6084C138.509 17.1947 138.787 16.7152 138.98 16.1667C139.172 15.6199 139.269 15.0345 139.269 14.4155V14.353L139.271 14.3513Z" fill="#3E3D3F"/>
<path id="Vector_8" d="M189.332 17.7143C188.885 18.7583 188.268 19.6724 187.478 20.4582C186.688 21.244 185.756 21.863 184.682 22.3184C183.608 22.7723 182.433 23 181.158 23C179.883 23 178.738 22.7771 177.664 22.3329C176.59 21.8887 175.663 21.2793 174.883 20.5047C174.104 19.7301 173.49 18.8208 173.045 17.7768C172.598 16.7328 172.377 15.6118 172.377 14.4139V14.3514C172.377 13.1534 172.6 12.0324 173.045 10.9884C173.49 9.94443 174.109 9.03034 174.898 8.24453C175.688 7.45873 176.62 6.83971 177.694 6.38426C178.768 5.93042 179.942 5.7027 181.219 5.7027C182.496 5.7027 183.639 5.92561 184.713 6.36983C185.787 6.81405 186.714 7.42345 187.493 8.19803C188.273 8.9726 188.885 9.88189 189.332 10.9259C189.776 11.9699 190 13.0909 190 14.2888V14.3514C190 15.5509 189.776 16.6719 189.332 17.7143V17.7143ZM185.442 14.3514C185.442 13.7307 185.34 13.1486 185.137 12.6001C184.934 12.0533 184.64 11.5674 184.256 11.144C183.871 10.7206 183.416 10.3838 182.888 10.1369C182.36 9.88831 181.784 9.76482 181.156 9.76482C180.488 9.76482 179.894 9.88349 179.379 10.1208C178.863 10.3582 178.421 10.6837 178.056 11.0975C177.691 11.5112 177.413 11.9923 177.221 12.5392C177.028 13.0877 176.931 13.6714 176.931 14.2904V14.353C176.931 14.9736 177.033 15.5573 177.236 16.1042C177.439 16.6526 177.731 17.1385 178.117 17.5619C178.501 17.9853 178.952 18.3221 179.468 18.569C179.984 18.8176 180.568 18.9411 181.215 18.9411C181.863 18.9411 182.477 18.8224 182.993 18.5851C183.509 18.3477 183.95 18.0222 184.315 17.6084C184.681 17.1947 184.958 16.7152 185.151 16.1667C185.344 15.6199 185.44 15.0345 185.44 14.4155V14.353L185.442 14.3514Z" fill="#3E3D3F"/>
<path id="Vector_9" d="M145.833 22.6279V0H150.802V22.6279H145.833Z" fill="#3E3D3F"/>
<path id="Vector_10" d="M153.262 4.184V0H158.493V4.184H153.262ZM153.393 22.6279V6.01381H158.362V22.6279H153.393Z" fill="#3E3D3F"/>
<path id="Vector_11" d="M171.022 10.6324C169.367 10.6324 168.064 11.1087 167.115 12.0581C166.167 13.0091 165.693 14.4861 165.693 16.4907V22.628H160.724V6.01382H165.693V9.3607C166.194 8.22369 166.88 7.31441 167.753 6.63284C168.624 5.95128 169.801 5.64177 171.283 5.70271V10.6308H171.021L171.022 10.6324Z" fill="#3E3D3F"/>
</g>
</g>
</g>
<defs>
<linearGradient id="paint0_linear_441_49" x1="20.0249" y1="19.6283" x2="25.7016" y2="4.99051" gradientUnits="userSpaceOnUse">
<stop offset="0.25" stop-color="#A1C4FD"/>
<stop offset="1" stop-color="#C2E9FB"/>
</linearGradient>
<clipPath id="clip0_441_49">
<rect width="190" height="23" fill="white"/>
</clipPath>
</defs>
</svg>
