<svg width="248" height="30" viewBox="0 0 248 30" fill="none" xmlns="http://www.w3.org/2000/svg">
<g id="Logo1" clip-path="url(#clip0_211_496)">
<g id="&#235;&#160;&#136;&#236;&#157;&#180;&#236;&#150;&#180; 1">
<g id="Group">
<path id="Vector" d="M27.0292 4.31571C26.698 4.31571 26.3713 4.33244 26.049 4.35754C29.0314 7.02663 30.8924 10.8064 30.8924 14.9983C30.8924 19.1902 29.0314 22.9721 26.049 25.6391C26.3735 25.6663 26.7003 25.6809 27.0292 25.6809C33.2567 25.6809 38.3053 20.8971 38.3053 14.9962C38.3053 9.09538 33.2567 4.31152 27.0292 4.31152V4.31571Z" fill="white"/>
<path id="Vector_2" d="M14.6735 15.0003C14.6735 9.20612 19.1151 4.39926 24.9475 3.46006C22.3271 1.521 19.029 0.364258 15.4462 0.364258C6.91624 0.364258 0 6.91774 0 15.0003C0 23.0828 6.91624 29.6363 15.4462 29.6363C19.029 29.6363 22.3271 28.4796 24.9475 26.5405C19.1151 25.6013 14.6735 20.7945 14.6735 15.0003Z" fill="white"/>
</g>
<g id="Group_2">
<path id="Vector_3" d="M72.0631 25.1468C71.5774 26.1174 70.8798 26.9248 69.9725 27.5732C69.0652 28.2217 67.9747 28.7049 66.6988 29.0291C65.4228 29.3533 64.01 29.5144 62.4581 29.5144H49.3232V1.21289H62.1424C64.9813 1.21289 67.2109 1.87389 68.8268 3.19379C70.4428 4.51369 71.2529 6.29377 71.2529 8.52986V8.61144C71.2529 9.42095 71.1558 10.1342 70.9593 10.7534C70.7628 11.3747 70.5002 11.9332 70.1734 12.431C69.8467 12.9309 69.467 13.3681 69.0343 13.7446C68.6017 14.1232 68.1381 14.4454 67.6414 14.7152C69.2396 15.3364 70.5001 16.1773 71.4185 17.242C72.3368 18.3067 72.796 19.7835 72.796 21.6682V21.7498C72.796 23.0425 72.5532 24.1762 72.0653 25.1468H72.0631ZM65.2462 9.57992C65.2462 8.63654 64.904 7.91698 64.2197 7.41705C63.5353 6.91921 62.5464 6.6682 61.2572 6.6682H55.2504V12.6527H60.862C62.2064 12.6527 63.2726 12.4163 64.063 11.9457C64.8533 11.4751 65.2484 10.7116 65.2484 9.6615V9.57992H65.2462ZM66.7871 20.9005C66.7871 19.9571 66.4316 19.2104 65.7208 18.6561C65.01 18.1038 63.8643 17.8277 62.2837 17.8277H55.2504V24.0549H62.4823C63.8267 24.0549 64.8797 23.806 65.6435 23.306C66.4074 22.8082 66.7893 22.0322 66.7893 20.9821V20.9005H66.7871Z" fill="white"/>
<path id="Vector_4" d="M129.188 29.5149V17.4559C129.188 16.0042 128.861 14.9081 128.205 14.1698C127.55 13.4314 126.612 13.0611 125.389 13.0611C124.166 13.0611 123.205 13.4314 122.508 14.1698C121.81 14.9081 121.461 16.0042 121.461 17.4559V29.5149H114.976V17.4559C114.976 16.0042 114.649 14.9081 113.993 14.1698C113.338 13.4314 112.399 13.0611 111.176 13.0611C109.953 13.0611 108.993 13.4314 108.296 14.1698C107.598 14.9081 107.249 16.0042 107.249 17.4559V29.5149H100.763V7.84428H107.249V10.9422C107.618 10.4799 108.024 10.0385 108.466 9.61809C108.907 9.19765 109.397 8.82531 109.938 8.499C110.479 8.17268 111.084 7.9154 111.75 7.72505C112.419 7.5347 113.165 7.44057 113.991 7.44057C115.499 7.44057 116.799 7.73969 117.896 8.33584C118.991 8.93408 119.839 9.78752 120.435 10.9003C121.43 9.76033 122.539 8.89852 123.764 8.31492C124.987 7.73132 126.38 7.43848 127.945 7.43848C130.362 7.43848 132.254 8.11202 133.62 9.45912C134.985 10.8083 135.669 12.7892 135.669 15.4018V29.5128H129.183L129.188 29.5149Z" fill="white"/>
<path id="Vector_5" d="M155.685 29.5147V26.4294C154.888 27.446 153.928 28.2806 152.804 28.9374C151.68 29.5921 150.265 29.9205 148.559 29.9205C147.221 29.9205 145.928 29.6779 144.676 29.1926C143.424 28.7073 142.314 27.9856 141.347 27.0297C140.38 26.0738 139.605 24.9003 139.022 23.5114C138.44 22.1245 138.148 20.5264 138.148 18.7212V18.6397C138.148 16.8345 138.44 15.2364 139.022 13.8495C139.605 12.4606 140.373 11.2892 141.327 10.3312C142.281 9.37526 143.382 8.65361 144.634 8.16832C145.886 7.68303 147.195 7.44039 148.559 7.44039C150.294 7.44039 151.722 7.76042 152.846 8.40259C153.97 9.04476 154.914 9.79361 155.683 10.6491V0H162.168V29.5147H155.683H155.685ZM155.771 18.6397C155.771 17.7444 155.621 16.9223 155.323 16.1777C155.025 15.4309 154.625 14.795 154.129 14.2658C153.63 13.7366 153.047 13.3287 152.38 13.0442C151.711 12.7597 150.994 12.6175 150.226 12.6175C149.457 12.6175 148.74 12.7597 148.071 13.0442C147.402 13.3287 146.813 13.7366 146.301 14.2658C145.788 14.795 145.382 15.4246 145.084 16.1588C144.786 16.891 144.636 17.7193 144.636 18.6418V18.7233C144.636 19.6186 144.786 20.4407 145.084 21.1874C145.382 21.9342 145.788 22.5701 146.301 23.0993C146.813 23.6285 147.402 24.0364 148.071 24.3209C148.74 24.6054 149.457 24.7476 150.226 24.7476C150.994 24.7476 151.711 24.6054 152.38 24.3209C153.049 24.0364 153.632 23.6285 154.129 23.0993C154.625 22.5701 155.025 21.9321 155.323 21.1874C155.621 20.4407 155.771 19.6207 155.771 18.7233V18.6418V18.6397Z" fill="white"/>
<path id="Vector_6" d="M91.4453 29.5148V26.4294C90.6484 27.446 89.6881 28.2806 88.5645 28.9374C87.4408 29.5922 86.0258 29.9206 84.3194 29.9206C82.9816 29.9206 81.688 29.6779 80.4363 29.1926C79.1846 28.7073 78.0742 27.9857 77.1073 27.0297C76.1404 26.0738 75.3656 24.9003 74.7828 23.5114C74.2 22.1246 73.9086 20.5265 73.9086 18.7213V18.6397C73.9086 16.8345 74.2 15.2364 74.7828 13.8496C75.3656 12.4606 76.1338 11.2893 77.0875 10.3312C78.0411 9.37531 79.1427 8.65365 80.3944 8.16836C81.646 7.68307 82.9551 7.44043 84.3194 7.44043C86.0545 7.44043 87.4828 7.76047 88.6064 8.40264C89.7301 9.04481 90.6749 9.79366 91.4431 10.6492V7.84414H97.9289V29.5148H91.4431H91.4453ZM91.5314 18.6397C91.5314 17.7444 91.3813 16.9224 91.0833 16.1777C90.7853 15.4309 90.3857 14.7951 89.889 14.2658C89.3901 13.7366 88.8073 13.3287 88.1406 13.0443C87.4717 12.7598 86.7543 12.6175 85.9861 12.6175C85.2178 12.6175 84.5004 12.7598 83.8315 13.0443C83.1626 13.3287 82.5732 13.7366 82.0611 14.2658C81.5489 14.7951 81.1427 15.4247 80.8447 16.1589C80.5467 16.891 80.3966 17.7193 80.3966 18.6418V18.7234C80.3966 19.6186 80.5467 20.4407 80.8447 21.1875C81.1427 21.9342 81.5489 22.5701 82.0611 23.0993C82.5732 23.6285 83.1626 24.0364 83.8315 24.3209C84.5004 24.6054 85.2178 24.7476 85.9861 24.7476C86.7543 24.7476 87.4717 24.6054 88.1406 24.3209C88.8095 24.0364 89.3923 23.6285 89.889 23.0993C90.3857 22.5701 90.7853 21.9321 91.0833 21.1875C91.3813 20.4407 91.5314 19.6207 91.5314 18.7234V18.6418V18.6397Z" fill="white"/>
<path id="Vector_7" d="M186.862 23.1057C186.279 24.4675 185.473 25.6598 184.443 26.6847C183.412 27.7097 182.195 28.5171 180.793 29.1112C179.392 29.7031 177.857 30.0002 176.193 30.0002C174.528 30.0002 173.034 29.7094 171.632 29.13C170.23 28.5506 169.021 27.7557 168.003 26.7454C166.985 25.7351 166.184 24.5491 165.603 23.1873C165.021 21.8256 164.731 20.3634 164.731 18.8009V18.7193C164.731 17.1568 165.023 15.6946 165.603 14.3329C166.184 12.9712 166.992 11.7789 168.023 10.7539C169.054 9.72895 170.27 8.92153 171.672 8.32747C173.074 7.73551 174.606 7.43848 176.272 7.43848C177.939 7.43848 179.431 7.72923 180.833 8.30865C182.235 8.88806 183.445 9.68293 184.462 10.6933C185.48 11.7036 186.279 12.8896 186.862 14.2513C187.443 15.6131 187.734 17.0752 187.734 18.6377V18.7193C187.734 20.284 187.443 21.7461 186.862 23.1057ZM181.785 18.7193C181.785 17.9098 181.652 17.1505 181.387 16.4351C181.122 15.7218 180.738 15.088 180.237 14.5358C179.734 13.9836 179.14 13.5443 178.451 13.2222C177.763 12.898 177.01 12.7369 176.191 12.7369C175.319 12.7369 174.544 12.8917 173.871 13.2013C173.197 13.5109 172.621 13.9355 172.144 14.4752C171.668 15.0148 171.305 15.6424 171.054 16.3556C170.802 17.071 170.676 17.8324 170.676 18.6398V18.7214C170.676 19.5309 170.809 20.2923 171.074 21.0056C171.339 21.721 171.72 22.3548 172.224 22.907C172.725 23.4593 173.314 23.8985 173.988 24.2207C174.661 24.5449 175.423 24.7059 176.268 24.7059C177.114 24.7059 177.915 24.5511 178.588 24.2416C179.261 23.932 179.838 23.5074 180.314 22.9677C180.791 22.428 181.153 21.8026 181.405 21.0872C181.657 20.3739 181.782 19.6104 181.782 18.803V18.7214L181.785 18.7193Z" fill="white"/>
<path id="Vector_8" d="M247.128 23.1057C246.545 24.4675 245.739 25.6598 244.709 26.6847C243.678 27.7097 242.461 28.5171 241.059 29.1112C239.658 29.7031 238.123 30.0002 236.459 30.0002C234.794 30.0002 233.3 29.7094 231.898 29.13C230.496 28.5506 229.287 27.7557 228.269 26.7454C227.251 25.7351 226.45 24.5491 225.869 23.1873C225.287 21.8256 224.997 20.3634 224.997 18.8009V18.7193C224.997 17.1568 225.289 15.6946 225.869 14.3329C226.45 12.9712 227.258 11.7789 228.289 10.7539C229.32 9.72895 230.536 8.92153 231.938 8.32747C233.34 7.73551 234.872 7.43848 236.538 7.43848C238.205 7.43848 239.697 7.72923 241.099 8.30865C242.501 8.88806 243.711 9.68293 244.728 10.6933C245.746 11.7036 246.545 12.8896 247.128 14.2513C247.709 15.6131 248 17.0752 248 18.6377V18.7193C248 20.284 247.709 21.7461 247.128 23.1057ZM242.051 18.7193C242.051 17.9098 241.918 17.1505 241.653 16.4351C241.388 15.7218 241.004 15.088 240.503 14.5358C240 13.9836 239.406 13.5443 238.717 13.2222C238.029 12.898 237.276 12.7369 236.457 12.7369C235.585 12.7369 234.81 12.8917 234.137 13.2013C233.463 13.5108 232.887 13.9355 232.41 14.4752C231.933 15.0148 231.571 15.6424 231.32 16.3556C231.068 17.071 230.942 17.8324 230.942 18.6398V18.7214C230.942 19.5309 231.075 20.2923 231.34 21.0056C231.605 21.721 231.986 22.3548 232.49 22.907C232.991 23.4593 233.58 23.8985 234.254 24.2207C234.927 24.5449 235.689 24.7059 236.534 24.7059C237.379 24.7059 238.181 24.5511 238.854 24.2416C239.527 23.932 240.104 23.5074 240.58 22.9677C241.057 22.428 241.419 21.8026 241.671 21.0872C241.923 20.3739 242.048 19.6104 242.048 18.803V18.7214L242.051 18.7193Z" fill="white"/>
<path id="Vector_9" d="M190.35 29.5147V0H196.836V29.5147H190.35Z" fill="white"/>
<path id="Vector_10" d="M200.048 5.4574V0H206.876V5.4574H200.048ZM200.218 29.5147V7.84409H206.703V29.5147H200.218Z" fill="white"/>
<path id="Vector_11" d="M223.229 13.8686C221.068 13.8686 219.368 14.4898 218.13 15.7282C216.891 16.9686 216.273 18.8951 216.273 21.5098V29.5149H209.787V7.84432H216.273V12.2098C216.927 10.7268 217.823 9.54073 218.962 8.65174C220.099 7.76274 221.635 7.35903 223.569 7.43852V13.8665H223.227L223.229 13.8686Z" fill="white"/>
</g>
</g>
</g>
<defs>
<clipPath id="clip0_211_496">
<rect width="248" height="30" fill="white"/>
</clipPath>
</defs>
</svg>
