<svg width="182" height="189" viewBox="0 0 182 189" fill="none" xmlns="http://www.w3.org/2000/svg">
<g id="Group 2">
<path id="Vector 1" d="M135.065 45.9462C136.495 33.6268 127.98 23.6491 120.633 17.3558C114.714 12.2852 108.256 6.80446 101.21 4.76106C95.9614 3.23876 90.466 1.77638 85.0846 1.36019C74.2991 0.526033 63.9888 0.943708 53.5335 4.73224C47.031 7.08843 40.7463 10.2155 34.8783 14.5314C24.9748 21.8154 14.5141 31.121 8.92827 44.217C2.71668 58.78 1.5996 75.2845 1.09131 91.541C0.680471 104.681 1.67126 117.46 3.75633 130.334C5.00095 138.019 6.16278 145.606 9.13154 152.526C11.878 158.928 14.9115 164.761 19.4754 169.3C24.5559 174.353 30.3694 176.936 36.4593 179.387C58.8307 188.393 81.7781 190.408 104.892 185.094C110.297 183.851 114.586 181.342 119.527 178.696C123.713 176.453 127.966 174.133 131.519 170.453C137.356 164.407 140.21 156.187 142.744 147.396C145.145 139.066 145.228 130.323 145.228 121.573C145.228 118.733 145.221 115.846 144.822 113.041C144.663 111.926 143.242 112.174 142.563 112.062C130.376 110.046 118.113 108.922 105.93 106.874C99.3155 105.761 92.3208 104.568 85.6492 104.568C82.7582 104.568 79.8567 104.049 76.9314 104.049" stroke="black" stroke-width="1.5" stroke-linecap="round"/>
<path id="Vector 2" d="M133.845 48.5401C131.221 38.2833 119.283 34.0412 111.983 39.0869C105.849 43.3267 99.9354 49.6604 96.7156 57.8781C95.2434 61.6356 95.2429 67.3594 95.7219 71.3664C96.3193 76.3641 98.4359 79.2384 101.007 82.7795C104.558 87.6716 110.404 90.2231 115.145 92.5498C118.693 94.2912 122.925 94.5402 125.669 90.8782C131.029 83.7282 134.643 76.4776 136.194 66.5821C136.839 62.4668 138.535 56.5582 137.097 52.431C136.402 50.4341 133.032 48.9497 133.032 46.9838" stroke="black" stroke-width="1.5" stroke-linecap="round"/>
<path id="Vector 3" d="M99.6972 52.6899C97.3797 39.9728 87.8653 38.4253 79.032 39.2305C68.7799 40.165 65.5488 52.2709 65.5488 63.4689C65.5488 68.9613 66.5409 72.373 70.1562 75.8331C73.7636 79.2858 77.9041 79.887 81.9229 82.2314C83.6797 83.2562 84.9725 83.2978 86.869 83.2978C90.5206 83.2978 94.525 78.1976 95.6319 73.9598" stroke="black" stroke-width="1.5" stroke-linecap="round"/>
<path id="Vector 4" d="M113.519 60.4723C113.202 61.0113 108.836 68.7727 111.893 68.7727C114.45 68.7727 116.556 63.6837 117.494 60.9911C117.761 60.2242 116.056 62.2007 115.868 63.1815C115.758 63.7567 115.391 67.6006 115.642 65.3142C115.799 63.8869 116.644 56.7844 114.332 60.4723" stroke="black" stroke-width="1.5" stroke-linecap="round"/>
<path id="Vector 5" d="M86.2816 55.8034C83.9694 56.4035 82.0774 57.6289 81.087 60.4724C80.5324 62.0648 81.8102 62.5475 82.8035 62.5475C84.0778 62.5475 86.4468 53.7283 83.2326 53.7283C81.343 53.7283 81.229 58.9638 82.7132 58.282C84.5514 57.4375 84.0617 53.6875 83.8424 54.247" stroke="black" stroke-width="1.5" stroke-linecap="round"/>
<path id="Vector 6" d="M141.976 151.777C147.015 146.662 152.211 142.362 156.182 135.695C161.909 126.079 167.73 116.852 170.523 104.972C173.354 92.9317 175.158 80.0951 173.663 67.5331C173.23 63.8945 173.365 59.7653 172.466 56.3218" stroke="black" stroke-width="1.5" stroke-linecap="round"/>
<path id="Vector 7" d="M154.578 44.9083C160.809 44.9083 164.076 53.5297 169.529 56.2061C169.906 56.3912 170.87 57.34 171.043 56.7249C171.519 55.0225 171.246 52.8002 171.246 51.0183C171.246 47.3943 170.996 44.8 169.823 41.5074C168.868 38.8267 169.589 42.6706 169.8 43.986C170.269 46.9035 170.72 49.67 171.043 52.6323C171.136 53.4931 170.915 60.7671 172.262 60.3851C172.828 60.2246 173.423 57.2213 173.685 56.5519C174.597 54.2249 175.46 52.1185 176.485 49.8655C177.794 46.9904 181.002 43.6653 181.002 40.2393" stroke="black" stroke-width="1.5" stroke-linecap="round"/>
</g>
</svg>
