<svg width="27" height="25" viewBox="0 0 27 25" fill="none" xmlns="http://www.w3.org/2000/svg">
<path d="M13.2334 0.166184C9.86573 0.131963 6.6223 1.43623 4.21588 3.79233C1.80946 6.14843 0.436961 9.36359 0.400024 12.7312C0.413001 15.3925 1.26912 17.9813 2.84543 20.1257C4.42174 22.2701 6.63711 23.8597 9.17336 24.6662C9.81502 24.7829 10.0484 24.3979 10.0484 24.0595C10.0484 23.7212 10.0484 22.9745 10.0484 21.9245C6.47836 22.6828 5.72002 20.2445 5.72002 20.2445C5.48237 19.4791 4.97713 18.8247 4.29669 18.4012C3.13002 17.6312 4.39002 17.6428 4.39002 17.6428C4.79328 17.6968 5.1791 17.8413 5.51855 18.0656C5.858 18.2898 6.14226 18.5881 6.35002 18.9378C6.71208 19.5657 7.30615 20.0262 8.00437 20.2204C8.70259 20.4146 9.44915 20.3269 10.0834 19.9762C10.1486 19.3373 10.4379 18.7421 10.9 18.2962C8.05336 17.9812 5.06669 16.9079 5.06669 12.0895C5.04123 10.8326 5.50564 9.61515 6.36169 8.69452C5.97182 7.61543 6.01786 6.42688 6.49002 5.38118C6.49002 5.38118 7.57502 5.04285 9.99002 6.66452C12.0922 6.10433 14.3045 6.10433 16.4067 6.66452C18.8567 5.04285 19.9067 5.38118 19.9067 5.38118C20.3789 6.42688 20.4249 7.61543 20.035 8.69452C20.911 9.59827 21.4005 10.8076 21.4 12.0662C21.4 16.8962 18.39 17.9578 15.5667 18.2729C15.8758 18.573 16.1146 18.9379 16.2659 19.3414C16.4172 19.7448 16.4773 20.1768 16.4417 20.6062V24.0478C16.4417 24.0478 16.675 24.7829 17.3167 24.6545C19.8457 23.843 22.0537 22.253 23.6251 20.1117C25.1965 17.9704 26.0511 15.3872 26.0667 12.7312C26.0298 9.36359 24.6573 6.14843 22.2508 3.79233C19.8444 1.43623 16.601 0.131963 13.2334 0.166184Z" fill="#3E3D3F"/>
</svg>
