<svg width="28" height="28" viewBox="0 0 28 28" fill="none" xmlns="http://www.w3.org/2000/svg">
<g id="&#240;&#159;&#166;&#134; icon &#34;github&#34;">
<path id="Vector" d="M14.2333 1.16618C10.8657 1.13196 7.62227 2.43623 5.21585 4.79233C2.80943 7.14843 1.43693 10.3636 1.39999 13.7312C1.41297 16.3925 2.26909 18.9813 3.8454 21.1257C5.42171 23.2701 7.63708 24.8597 10.1733 25.6662C10.815 25.7829 11.0483 25.3979 11.0483 25.0595C11.0483 24.7212 11.0483 23.9745 11.0483 22.9245C7.47833 23.6828 6.71999 21.2445 6.71999 21.2445C6.48234 20.4791 5.9771 19.8247 5.29666 19.4012C4.12999 18.6312 5.38999 18.6428 5.38999 18.6428C5.79325 18.6968 6.17907 18.8413 6.51852 19.0656C6.85797 19.2898 7.14223 19.5881 7.34999 19.9378C7.71205 20.5657 8.30612 21.0262 9.00434 21.2204C9.70256 21.4146 10.4491 21.3269 11.0833 20.9762C11.1486 20.3373 11.4379 19.7421 11.9 19.2962C9.05333 18.9812 6.06666 17.9079 6.06666 13.0895C6.0412 11.8326 6.50561 10.6151 7.36166 9.69452C6.97179 8.61543 7.01783 7.42688 7.48999 6.38118C7.48999 6.38118 8.57499 6.04285 10.99 7.66452C13.0922 7.10433 15.3045 7.10433 17.4067 7.66452C19.8567 6.04285 20.9067 6.38118 20.9067 6.38118C21.3788 7.42688 21.4249 8.61543 21.035 9.69452C21.9109 10.5983 22.4005 11.8076 22.4 13.0662C22.4 17.8962 19.39 18.9578 16.5667 19.2729C16.8758 19.573 17.1146 19.9379 17.2659 20.3414C17.4172 20.7448 17.4772 21.1768 17.4417 21.6062V25.0478C17.4417 25.0478 17.675 25.7829 18.3167 25.6545C20.8457 24.843 23.0536 23.253 24.6251 21.1117C26.1965 18.9704 27.051 16.3872 27.0667 13.7312C27.0297 10.3636 25.6572 7.14843 23.2508 4.79233C20.8444 2.43623 17.601 1.13196 14.2333 1.16618Z" fill="#3E3D3F"/>
</g>
</svg>
