<svg width="37" height="36" viewBox="0 0 37 36" fill="none" xmlns="http://www.w3.org/2000/svg">
<path d="M18.3333 0.666954C13.5224 0.618067 8.88896 2.4813 5.45122 5.84716C2.01348 9.21302 0.052767 13.8061 0 18.617C0.0185373 22.4189 1.24157 26.1172 3.49344 29.1805C5.7453 32.2439 8.91013 34.5148 12.5333 35.667C13.45 35.8336 13.7833 35.2836 13.7833 34.8003C13.7833 34.317 13.7833 33.2503 13.7833 31.7503C8.68333 32.8336 7.6 29.3503 7.6 29.3503C7.26049 28.2568 6.53872 27.322 5.56667 26.717C3.9 25.617 5.7 25.6336 5.7 25.6336C6.27609 25.7106 6.82726 25.9171 7.31218 26.2375C7.79711 26.5579 8.2032 26.9839 8.5 27.4836C9.01722 28.3805 9.86589 29.0384 10.8634 29.3159C11.8608 29.5933 12.9273 29.468 13.8333 28.967C13.9265 28.0543 14.3398 27.204 15 26.567C10.9333 26.117 6.66667 24.5836 6.66667 17.7003C6.6303 15.9048 7.29374 14.1655 8.51667 12.8503C7.95971 11.3087 8.02548 9.61081 8.7 8.11695C8.7 8.11695 10.25 7.63362 13.7 9.95029C16.7032 9.15002 19.8635 9.15002 22.8667 9.95029C26.3667 7.63362 27.8667 8.11695 27.8667 8.11695C28.5412 9.61081 28.607 11.3087 28.05 12.8503C29.3013 14.1414 30.0008 15.869 30 17.667C30 24.567 25.7 26.0836 21.6667 26.5336C22.1083 26.9624 22.4495 27.4837 22.6656 28.0601C22.8817 28.6364 22.9675 29.2535 22.9167 29.867V34.7836C22.9167 34.7836 23.25 35.8336 24.1667 35.6503C27.7796 34.491 30.9338 32.2196 33.1787 29.1605C35.4236 26.1015 36.6443 22.4113 36.6667 18.617C36.6139 13.8061 34.6532 9.21302 31.2154 5.84716C27.7777 2.4813 23.1442 0.618067 18.3333 0.666954Z" fill="white"/>
</svg>
