<svg width="30" height="23" viewBox="0 0 30 23" fill="none" xmlns="http://www.w3.org/2000/svg">
<path d="M20.7078 3.30838C20.4541 3.30838 20.2038 3.32121 19.9569 3.34046C22.2418 5.38675 23.6676 8.28461 23.6676 11.4984C23.6676 14.7122 22.2418 17.6116 19.9569 19.6563C20.2055 19.6772 20.4558 19.6884 20.7078 19.6884C25.4789 19.6884 29.3468 16.0208 29.3468 11.4968C29.3468 6.9728 25.4789 3.30518 20.7078 3.30518V3.30838Z" fill="url(#paint0_linear_1218_20)"/>
<path d="M11.2418 11.5C11.2418 7.05781 14.6447 3.37255 19.113 2.6525C17.1054 1.16589 14.5787 0.279053 11.8338 0.279053C5.29873 0.279053 0 5.30339 0 11.5C0 17.6966 5.29873 22.721 11.8338 22.721C14.5787 22.721 17.1054 21.8341 19.113 20.3475C14.6447 19.6275 11.2418 15.9422 11.2418 11.5Z" fill="#3E3D3F"/>
<defs>
<linearGradient id="paint0_linear_1218_20" x1="20.0249" y1="19.6283" x2="25.7016" y2="4.99051" gradientUnits="userSpaceOnUse">
<stop offset="0.25" stop-color="#A1C4FD"/>
<stop offset="1" stop-color="#C2E9FB"/>
</linearGradient>
</defs>
</svg>
