<svg width="88" height="88" viewBox="0 0 88 88" fill="none" xmlns="http://www.w3.org/2000/svg">
<g id="Frame 23">
<rect width="88" height="88" rx="44" fill="#6699ED" fill-opacity="0.5"/>
<g id="&#240;&#159;&#166;&#134; icon &#34;checkmark outline&#34;">
<path id="Vector" d="M38.2831 60.3287C37.9118 60.3275 37.5446 60.25 37.2045 60.1009C36.8644 59.9518 36.5586 59.7344 36.3061 59.4621L23.1436 45.46C22.6515 44.9356 22.3879 44.2373 22.4108 43.5186C22.4337 42.7999 22.7411 42.1197 23.2654 41.6277C23.7898 41.1357 24.4881 40.8721 25.2068 40.8949C25.9255 40.9178 26.6057 41.2252 27.0977 41.7496L38.2561 53.6392L61.0331 28.7225C61.2643 28.4347 61.5518 28.1971 61.8781 28.0245C62.2044 27.8518 62.5626 27.7477 62.9306 27.7185C63.2986 27.6892 63.6686 27.7356 64.0181 27.8546C64.3675 27.9736 64.689 28.1628 64.9626 28.4106C65.2363 28.6584 65.4564 28.9595 65.6094 29.2954C65.7625 29.6313 65.8452 29.995 65.8526 30.3641C65.86 30.7332 65.7919 31.0999 65.6524 31.4417C65.5129 31.7835 65.305 32.0931 65.0415 32.3517L40.2873 59.435C40.0372 59.7122 39.7324 59.9347 39.3922 60.0885C39.0519 60.2423 38.6836 60.3241 38.3102 60.3287H38.2831Z" fill="white"/>
</g>
</g>
</svg>
