<svg width="200" height="187" viewBox="0 0 200 187" fill="none" xmlns="http://www.w3.org/2000/svg">
<g id="symbol-color">
<path id="Subtract" fill-rule="evenodd" clip-rule="evenodd" d="M122.564 5.83039L180.78 37.9944C185.741 40.7193 189.127 45.6614 189.901 51.3248L199.795 123.961C201.048 133.258 196.488 142.367 188.301 146.828L127.685 179.927C110.431 189.358 89.6031 189.358 72.3223 179.927L11.7063 146.828C3.51931 142.367 -1.06755 133.258 0.212504 123.961L10.1063 51.3248C10.8796 45.6881 14.2664 40.746 19.2267 37.9944L77.4425 5.83039C91.4965 -1.94346 108.511 -1.94346 122.564 5.83039ZM88.4294 35.0291L57.4947 51.9659H57.5214C51.9478 55.0114 51.9745 62.9989 57.5481 66.0177L88.6961 82.8744C95.5231 86.5876 103.737 86.5609 110.537 82.8744L142.992 65.2429C147.899 62.5715 147.925 55.5189 142.992 52.8208L110.404 35.0291C103.55 31.2891 95.2831 31.2891 88.4294 35.0291Z" fill="url(#paint0_linear_278_757)"/>
</g>
<defs>
<linearGradient id="paint0_linear_278_757" x1="100" y1="0" x2="100" y2="187" gradientUnits="userSpaceOnUse">
<stop stop-color="#09C4FF"/>
<stop offset="0.809186" stop-color="#257CFF"/>
</linearGradient>
</defs>
</svg>
